<svg width="41" height="14" viewBox="0 0 41 14" fill="none" xmlns="http://www.w3.org/2000/svg">
<path d="M9.54492 11.3125V13H0.966797V11.5498L5.13281 7.00586C5.58984 6.49023 5.9502 6.04492 6.21387 5.66992C6.47754 5.29492 6.66211 4.95801 6.76758 4.65918C6.87891 4.35449 6.93457 4.05859 6.93457 3.77148C6.93457 3.36719 6.8584 3.0127 6.70605 2.70801C6.55957 2.39746 6.34277 2.1543 6.05566 1.97852C5.76855 1.79687 5.41992 1.70605 5.00977 1.70605C4.53516 1.70605 4.13672 1.80859 3.81445 2.01367C3.49219 2.21875 3.24902 2.50293 3.08496 2.86621C2.9209 3.22363 2.83887 3.63379 2.83887 4.09668H0.720703C0.720703 3.35254 0.890625 2.67285 1.23047 2.05762C1.57031 1.43652 2.0625 0.944336 2.70703 0.581055C3.35156 0.211914 4.12793 0.0273438 5.03613 0.0273438C5.8916 0.0273438 6.61816 0.170898 7.21582 0.458008C7.81348 0.745117 8.26758 1.15234 8.57812 1.67969C8.89453 2.20703 9.05273 2.83105 9.05273 3.55176C9.05273 3.9502 8.98828 4.3457 8.85938 4.73828C8.73047 5.13086 8.5459 5.52344 8.30566 5.91602C8.07129 6.30273 7.79297 6.69238 7.4707 7.08496C7.14844 7.47168 6.79395 7.86426 6.40723 8.2627L3.63867 11.3125H9.54492ZM19.5381 5.5293V7.62109C19.5381 8.62305 19.4385 9.47852 19.2393 10.1875C19.0459 10.8906 18.7646 11.4619 18.3955 11.9014C18.0264 12.3408 17.584 12.6631 17.0684 12.8682C16.5586 13.0732 15.9873 13.1758 15.3545 13.1758C14.8506 13.1758 14.3818 13.1113 13.9482 12.9824C13.5205 12.8535 13.1338 12.6514 12.7881 12.376C12.4424 12.1006 12.1465 11.7461 11.9004 11.3125C11.6602 10.873 11.4727 10.3486 11.3379 9.73926C11.209 9.12988 11.1445 8.42383 11.1445 7.62109V5.5293C11.1445 4.52148 11.2441 3.67188 11.4434 2.98047C11.6426 2.2832 11.9268 1.71777 12.2959 1.28418C12.665 0.844727 13.1045 0.525391 13.6143 0.326172C14.1299 0.126953 14.7041 0.0273438 15.3369 0.0273438C15.8467 0.0273438 16.3154 0.0917969 16.7432 0.220703C17.1768 0.34375 17.5635 0.540039 17.9033 0.80957C18.249 1.0791 18.542 1.43066 18.7822 1.86426C19.0283 2.29199 19.2158 2.81055 19.3447 3.41992C19.4736 4.02344 19.5381 4.72656 19.5381 5.5293ZM17.4199 7.91992V5.21289C17.4199 4.70312 17.3906 4.25488 17.332 3.86816C17.2734 3.47559 17.1855 3.14453 17.0684 2.875C16.957 2.59961 16.8164 2.37695 16.6465 2.20703C16.4766 2.03125 16.2832 1.90527 16.0664 1.8291C15.8496 1.74707 15.6064 1.70605 15.3369 1.70605C15.0088 1.70605 14.7158 1.77051 14.458 1.89941C14.2002 2.02246 13.9834 2.22168 13.8076 2.49707C13.6318 2.77246 13.4971 3.13574 13.4033 3.58691C13.3154 4.03223 13.2715 4.57422 13.2715 5.21289V7.91992C13.2715 8.43555 13.3008 8.88965 13.3594 9.28223C13.418 9.6748 13.5059 10.0117 13.623 10.293C13.7402 10.5684 13.8809 10.7969 14.0449 10.9785C14.2148 11.1543 14.4082 11.2832 14.625 11.3652C14.8477 11.4473 15.0908 11.4883 15.3545 11.4883C15.6885 11.4883 15.9844 11.4238 16.2422 11.2949C16.5 11.166 16.7168 10.9609 16.8926 10.6797C17.0684 10.3926 17.2002 10.0205 17.2881 9.56348C17.376 9.10645 17.4199 8.55859 17.4199 7.91992ZM30.2432 8.43848V10.126H21.0146L20.9443 8.85156L26.4639 0.203125H28.1602L26.3232 3.34961L23.1504 8.43848H30.2432ZM28.6436 0.203125V13H26.5254V0.203125H28.6436ZM40.0254 9.51074C40.0254 10.3076 39.8408 10.9785 39.4717 11.5234C39.1025 12.0684 38.5986 12.4814 37.96 12.7627C37.3271 13.0381 36.6123 13.1758 35.8154 13.1758C35.0186 13.1758 34.3008 13.0381 33.6621 12.7627C33.0234 12.4814 32.5195 12.0684 32.1504 11.5234C31.7812 10.9785 31.5967 10.3076 31.5967 9.51074C31.5967 8.9834 31.6992 8.50586 31.9043 8.07812C32.1094 7.64453 32.3994 7.27246 32.7744 6.96191C33.1553 6.64551 33.6006 6.40234 34.1104 6.23242C34.626 6.0625 35.1885 5.97754 35.7979 5.97754C36.6064 5.97754 37.3301 6.12695 37.9688 6.42578C38.6074 6.72461 39.1084 7.1377 39.4717 7.66504C39.8408 8.19238 40.0254 8.80762 40.0254 9.51074ZM37.8984 9.40527C37.8984 8.97754 37.8105 8.60254 37.6348 8.28027C37.459 7.95801 37.2129 7.70898 36.8965 7.5332C36.5801 7.35742 36.2139 7.26953 35.7979 7.26953C35.376 7.26953 35.0098 7.35742 34.6992 7.5332C34.3887 7.70898 34.1455 7.95801 33.9697 8.28027C33.7998 8.60254 33.7148 8.97754 33.7148 9.40527C33.7148 9.83887 33.7998 10.2139 33.9697 10.5303C34.1396 10.8408 34.3828 11.0781 34.6992 11.2422C35.0156 11.4062 35.3877 11.4883 35.8154 11.4883C36.2432 11.4883 36.6123 11.4062 36.9229 11.2422C37.2334 11.0781 37.4736 10.8408 37.6436 10.5303C37.8135 10.2139 37.8984 9.83887 37.8984 9.40527ZM39.7354 3.56934C39.7354 4.20801 39.5654 4.77637 39.2256 5.27441C38.8916 5.77246 38.4287 6.16504 37.8369 6.45215C37.2451 6.7334 36.5713 6.87402 35.8154 6.87402C35.0537 6.87402 34.374 6.7334 33.7764 6.45215C33.1846 6.16504 32.7188 5.77246 32.3789 5.27441C32.0449 4.77637 31.8779 4.20801 31.8779 3.56934C31.8779 2.80762 32.0449 2.16602 32.3789 1.64453C32.7188 1.11719 33.1846 0.71582 33.7764 0.44043C34.3682 0.165039 35.0449 0.0273438 35.8066 0.0273438C36.5684 0.0273438 37.2451 0.165039 37.8369 0.44043C38.4287 0.71582 38.8916 1.11719 39.2256 1.64453C39.5654 2.16602 39.7354 2.80762 39.7354 3.56934ZM37.6172 3.63965C37.6172 3.25879 37.541 2.9248 37.3887 2.6377C37.2422 2.34473 37.0342 2.11621 36.7646 1.95215C36.4951 1.78809 36.1758 1.70605 35.8066 1.70605C35.4375 1.70605 35.1182 1.78516 34.8486 1.94336C34.5791 2.10156 34.3711 2.32422 34.2246 2.61133C34.0781 2.89844 34.0049 3.24121 34.0049 3.63965C34.0049 4.03223 34.0781 4.375 34.2246 4.66797C34.3711 4.95508 34.5791 5.18066 34.8486 5.34473C35.124 5.50879 35.4463 5.59082 35.8154 5.59082C36.1846 5.59082 36.5039 5.50879 36.7734 5.34473C37.043 5.18066 37.251 4.95508 37.3975 4.66797C37.5439 4.375 37.6172 4.03223 37.6172 3.63965Z"/>
</svg>
